<svg id="SvgjsSvg1006" width="2795.328125" height="863.75" xmlns="http://www.w3.org/2000/svg" version="1.1" xmlns:xlink="http://www.w3.org/1999/xlink" xmlns:svgjs="http://svgjs.com/svgjs"><defs id="SvgjsDefs1007"><marker id="SvgjsMarker1028" markerWidth="16" markerHeight="12" refX="16" refY="6" viewBox="0 0 16 12" orient="auto" markerUnits="userSpaceOnUse" stroke-dasharray="0,0"><path id="SvgjsPath1029" d="M0,2 L14,6 L0,11 L0,2" fill="#323232" stroke="#323232" stroke-width="2"></path></marker><marker id="SvgjsMarker1083" markerWidth="16" markerHeight="12" refX="16" refY="6" viewBox="0 0 16 12" orient="auto" markerUnits="userSpaceOnUse" stroke-dasharray="0,0"><path id="SvgjsPath1084" d="M0,2 L14,6 L0,11 L0,2" fill="#323232" stroke="#323232" stroke-width="2"></path></marker><marker id="SvgjsMarker1093" markerWidth="16" markerHeight="12" refX="16" refY="6" viewBox="0 0 16 12" orient="auto" markerUnits="userSpaceOnUse" stroke-dasharray="0,0"><path id="SvgjsPath1094" d="M0,2 L14,6 L0,11 L0,2" fill="#323232" stroke="#323232" stroke-width="2"></path></marker><marker id="SvgjsMarker1113" markerWidth="16" markerHeight="12" refX="16" refY="6" viewBox="0 0 16 12" orient="auto" markerUnits="userSpaceOnUse" stroke-dasharray="0,0"><path id="SvgjsPath1114" d="M0,2 L14,6 L0,11 L0,2" fill="#323232" stroke="#323232" stroke-width="2"></path></marker><marker id="SvgjsMarker1138" markerWidth="16" markerHeight="12" refX="16" refY="6" viewBox="0 0 16 12" orient="auto" markerUnits="userSpaceOnUse" stroke-dasharray="0,0"><path id="SvgjsPath1139" d="M0,2 L14,6 L0,11 L0,2" fill="#323232" stroke="#323232" stroke-width="2"></path></marker><marker id="SvgjsMarker1192" markerWidth="16" markerHeight="12" refX="16" refY="6" viewBox="0 0 16 12" orient="auto" markerUnits="userSpaceOnUse" stroke-dasharray="0,0"><path id="SvgjsPath1193" d="M0,2 L14,6 L0,11 L0,2" fill="#323232" stroke="#323232" stroke-width="2"></path></marker><marker id="SvgjsMarker1196" markerWidth="16" markerHeight="12" refX="16" refY="6" viewBox="0 0 16 12" orient="auto" markerUnits="userSpaceOnUse" stroke-dasharray="0,0"><path id="SvgjsPath1197" d="M0,2 L14,6 L0,11 L0,2" fill="#323232" stroke="#323232" stroke-width="2"></path></marker><marker id="SvgjsMarker1200" markerWidth="16" markerHeight="12" refX="16" refY="6" viewBox="0 0 16 12" orient="auto" markerUnits="userSpaceOnUse" stroke-dasharray="0,0"><path id="SvgjsPath1201" d="M0,2 L14,6 L0,11 L0,2" fill="#323232" stroke="#323232" stroke-width="2"></path></marker><marker id="SvgjsMarker1214" markerWidth="16" markerHeight="12" refX="16" refY="6" viewBox="0 0 16 12" orient="auto" markerUnits="userSpaceOnUse" stroke-dasharray="0,0"><path id="SvgjsPath1215" d="M0,2 L14,6 L0,11 L0,2" fill="#323232" stroke="#323232" stroke-width="2"></path></marker><marker id="SvgjsMarker1226" markerWidth="16" markerHeight="12" refX="16" refY="6" viewBox="0 0 16 12" orient="auto" markerUnits="userSpaceOnUse" stroke-dasharray="0,0"><path id="SvgjsPath1227" d="M0,2 L14,6 L0,11 L0,2" fill="#323232" stroke="#323232" stroke-width="2"></path></marker><marker id="SvgjsMarker1238" markerWidth="16" markerHeight="12" refX="16" refY="6" viewBox="0 0 16 12" orient="auto" markerUnits="userSpaceOnUse" stroke-dasharray="0,0"><path id="SvgjsPath1239" d="M0,2 L14,6 L0,11 L0,2" fill="#323232" stroke="#323232" stroke-width="2"></path></marker><marker id="SvgjsMarker1254" markerWidth="16" markerHeight="12" refX="16" refY="6" viewBox="0 0 16 12" orient="auto" markerUnits="userSpaceOnUse" stroke-dasharray="0,0"><path id="SvgjsPath1255" d="M0,2 L14,6 L0,11 L0,2" fill="#323232" stroke="#323232" stroke-width="2"></path></marker><marker id="SvgjsMarker1266" markerWidth="16" markerHeight="12" refX="16" refY="6" viewBox="0 0 16 12" orient="auto" markerUnits="userSpaceOnUse" stroke-dasharray="0,0"><path id="SvgjsPath1267" d="M0,2 L14,6 L0,11 L0,2" fill="#323232" stroke="#323232" stroke-width="2"></path></marker><marker id="SvgjsMarker1276" markerWidth="16" markerHeight="12" refX="16" refY="6" viewBox="0 0 16 12" orient="auto" markerUnits="userSpaceOnUse" stroke-dasharray="0,0"><path id="SvgjsPath1277" d="M0,2 L14,6 L0,11 L0,2" fill="#323232" stroke="#323232" stroke-width="2"></path></marker><marker id="SvgjsMarker1294" markerWidth="16" markerHeight="12" refX="16" refY="6" viewBox="0 0 16 12" orient="auto" markerUnits="userSpaceOnUse" stroke-dasharray="0,0"><path id="SvgjsPath1295" d="M0,2 L14,6 L0,11 L0,2" fill="#323232" stroke="#323232" stroke-width="2"></path></marker><marker id="SvgjsMarker1306" markerWidth="16" markerHeight="12" refX="16" refY="6" viewBox="0 0 16 12" orient="auto" markerUnits="userSpaceOnUse" stroke-dasharray="0,0"><path id="SvgjsPath1307" d="M0,2 L14,6 L0,11 L0,2" fill="#323232" stroke="#323232" stroke-width="2"></path></marker><marker id="SvgjsMarker1316" markerWidth="16" markerHeight="12" refX="16" refY="6" viewBox="0 0 16 12" orient="auto" markerUnits="userSpaceOnUse" stroke-dasharray="0,0"><path id="SvgjsPath1317" d="M0,2 L14,6 L0,11 L0,2" fill="#323232" stroke="#323232" stroke-width="2"></path></marker><marker id="SvgjsMarker1354" markerWidth="16" markerHeight="12" refX="16" refY="6" viewBox="0 0 16 12" orient="auto" markerUnits="userSpaceOnUse" stroke-dasharray="0,0"><path id="SvgjsPath1355" d="M0,2 L14,6 L0,11 L0,2" fill="#323232" stroke="#323232" stroke-width="2"></path></marker><marker id="SvgjsMarker1370" markerWidth="16" markerHeight="12" refX="16" refY="6" viewBox="0 0 16 12" orient="auto" markerUnits="userSpaceOnUse" stroke-dasharray="0,0"><path id="SvgjsPath1371" d="M0,2 L14,6 L0,11 L0,2" fill="#323232" stroke="#323232" stroke-width="2"></path></marker><marker id="SvgjsMarker1374" markerWidth="16" markerHeight="12" refX="16" refY="6" viewBox="0 0 16 12" orient="auto" markerUnits="userSpaceOnUse" stroke-dasharray="0,0"><path id="SvgjsPath1375" d="M0,2 L14,6 L0,11 L0,2" fill="#323232" stroke="#323232" stroke-width="2"></path></marker><marker id="SvgjsMarker1396" markerWidth="16" markerHeight="12" refX="16" refY="6" viewBox="0 0 16 12" orient="auto" markerUnits="userSpaceOnUse" stroke-dasharray="0,0"><path id="SvgjsPath1397" d="M0,2 L14,6 L0,11 L0,2" fill="#323232" stroke="#323232" stroke-width="2"></path></marker><marker id="SvgjsMarker1400" markerWidth="16" markerHeight="12" refX="16" refY="6" viewBox="0 0 16 12" orient="auto" markerUnits="userSpaceOnUse" stroke-dasharray="0,0"><path id="SvgjsPath1401" d="M0,2 L14,6 L0,11 L0,2" fill="#323232" stroke="#323232" stroke-width="2"></path></marker><marker id="SvgjsMarker1416" markerWidth="16" markerHeight="12" refX="16" refY="6" viewBox="0 0 16 12" orient="auto" markerUnits="userSpaceOnUse" stroke-dasharray="0,0"><path id="SvgjsPath1417" d="M0,2 L14,6 L0,11 L0,2" fill="#323232" stroke="#323232" stroke-width="2"></path></marker><marker id="SvgjsMarker1420" markerWidth="16" markerHeight="12" refX="16" refY="6" viewBox="0 0 16 12" orient="auto" markerUnits="userSpaceOnUse" stroke-dasharray="0,0"><path id="SvgjsPath1421" d="M0,2 L14,6 L0,11 L0,2" fill="#323232" stroke="#323232" stroke-width="2"></path></marker><marker id="SvgjsMarker1424" markerWidth="16" markerHeight="12" refX="16" refY="6" viewBox="0 0 16 12" orient="auto" markerUnits="userSpaceOnUse" stroke-dasharray="0,0"><path id="SvgjsPath1425" d="M0,2 L14,6 L0,11 L0,2" fill="#323232" stroke="#323232" stroke-width="2"></path></marker></defs><g id="SvgjsG1008" transform="translate(1369.343407858304,169.65625)"><path id="SvgjsPath1009" d="M 0 0L 229 0L 229 69L 0 69Z" stroke="rgba(50,50,50,1)" stroke-width="2" fill-opacity="1" fill="#ff0080"></path><g id="SvgjsG1010"><text id="SvgjsText1011" font-family="Arial" text-anchor="middle" font-size="13px" width="209px" fill="#323232" font-weight="400" align="middle" anchor="middle" family="Arial" size="13px" weight="400" font-style="" opacity="1" y="0.55" transform="rotate(0)"><tspan id="SvgjsTspan1012" dy="16" x="114.5"><tspan id="SvgjsTspan1013" style="text-decoration:;">[last] 处理mod的uris</tspan></tspan><tspan id="SvgjsTspan1014" dy="16" x="114.5"><tspan id="SvgjsTspan1015" style="text-decoration:;">执行CacheMods[uris[i]].exec()</tspan></tspan><tspan id="SvgjsTspan1016" dy="16" x="114.5"><tspan id="SvgjsTspan1017" style="text-decoration:;">执行mod自身回调</tspan></tspan><tspan id="SvgjsTspan1018" dy="16" x="114.5"><tspan id="SvgjsTspan1019" style="text-decoration:;">删除不用的内部变量</tspan></tspan></text></g></g><g id="SvgjsG1020" transform="translate(892.828125,30.15625)"><path id="SvgjsPath1021" d="M 0 0L 123 0L 123 78L 0 78Z" stroke="rgba(50,50,50,1)" stroke-width="2" fill-opacity="1" fill="#ff0080"></path><g id="SvgjsG1022"><text id="SvgjsText1023" font-family="Arial" text-anchor="middle" font-size="13px" width="103px" fill="#323232" font-weight="400" align="middle" anchor="middle" family="Arial" size="13px" weight="400" font-style="" opacity="1" y="29.05" transform="rotate(0)"><tspan id="SvgjsTspan1024" dy="16" x="61.5"><tspan id="SvgjsTspan1025" style="text-decoration:;">[1]seajs.use</tspan></tspan></text></g></g><g id="SvgjsG1026"><path id="SvgjsPath1027" d="M954.3281250000001 108.15625L954.3281250000001 153.10841967960036L954.3281250000001 153.10841967960036L954.3281250000001 196.394308495003" stroke="#323232" stroke-width="2" fill="none" marker-end="url(#SvgjsMarker1028)"></path></g><g id="SvgjsG1030" transform="translate(863.328125,196.394308495003)"><path id="SvgjsPath1031" d="M 0 0L 182 0L 182 30L 0 30Z" stroke="rgba(50,50,50,1)" stroke-width="2" fill-opacity="1" fill="#6ed464"></path><g id="SvgjsG1032"><text id="SvgjsText1033" font-family="Arial" text-anchor="middle" font-size="13px" width="162px" fill="#323232" font-weight="400" align="middle" anchor="middle" family="Arial" size="13px" weight="400" font-style="" opacity="1" y="5.05" transform="rotate(0)"><tspan id="SvgjsTspan1034" dy="16" x="91"><tspan id="SvgjsTspan1035" style="text-decoration:;">[2]Module.use(ids, cb,uri)</tspan></tspan></text></g></g><g id="SvgjsG1036" transform="translate(968.6614583333336,141.65624999999997)"><path id="SvgjsPath1037" d="M 100 0Q 91 0 91 9L 91 61Q 91 70 78 70Q 91 70 91 79L 91 131Q 91 140 100 140" stroke="rgba(50,50,50,1)" stroke-width="2" fill="none"></path><path id="SvgjsPath1038" d="M 0 0L 100 0L 100 140L 0 140Z" stroke="none" fill="none"></path><g id="SvgjsG1039"><text id="SvgjsText1040" font-family="Arial" text-anchor="end" font-size="13px" width="73px" fill="#323232" font-weight="400" align="middle" anchor="end" family="Arial" size="13px" weight="400" font-style="" opacity="1" y="60.05" transform="rotate(0)"></text></g></g><g id="SvgjsG1041" transform="translate(1069.328125,133.32291666666669)"><path id="SvgjsPath1042" d="M 0 0L 212 0L 212 21L 0 21Z" stroke="rgba(50,50,50,1)" stroke-width="2" fill-opacity="1" fill="#6ed464"></path><g id="SvgjsG1043"><text id="SvgjsText1044" font-family="Arial" text-anchor="middle" font-size="13px" width="192px" fill="#323232" font-weight="400" align="middle" anchor="middle" family="Arial" size="13px" weight="400" font-style="" opacity="1" y="0.55" transform="rotate(0)"><tspan id="SvgjsTspan1045" dy="16" x="106"><tspan id="SvgjsTspan1046" style="text-decoration:;">[2.1]mod = Module.get(uri,ids)</tspan></tspan></text></g></g><g id="SvgjsG1047" transform="translate(1069.328125,165.15625)"><path id="SvgjsPath1048" d="M 0 0L 212 0L 212 78L 0 78Z" stroke="rgba(50,50,50,1)" stroke-width="2" fill-opacity="1" fill="#6ed464"></path><g id="SvgjsG1049"><text id="SvgjsText1050" font-family="Arial" text-anchor="middle" font-size="13px" width="192px" fill="#323232" font-weight="400" align="middle" anchor="middle" family="Arial" size="13px" weight="400" font-style="" opacity="1" y="5.05" transform="rotate(0)"><tspan id="SvgjsTspan1051" dy="16" x="106"><tspan id="SvgjsTspan1052" style="text-decoration:;">[2.2]mod._entry.push(mod)</tspan></tspan><tspan id="SvgjsTspan1053" dy="16" x="106"><tspan id="SvgjsTspan1054" style="text-decoration:;">mod.hsitory = {}</tspan></tspan><tspan id="SvgjsTspan1055" dy="16" x="106"><tspan id="SvgjsTspan1056" style="text-decoration:;">mod.remain = 1;</tspan></tspan><tspan id="SvgjsTspan1057" dy="16" x="106"><tspan id="SvgjsTspan1058" style="text-decoration:;">mod.callback = Fn()</tspan></tspan></text></g></g><g id="SvgjsG1059" transform="translate(1278.504690357796,188.8737874779541)"><path id="SvgjsPath1060" d="M 0 9.9L 75.83333333333337 9.9L 75.83333333333337 0L 90.83333333333337 15L 75.83333333333337 30L 75.83333333333337 20.1L 0 20.1L 0 9.9Z" stroke="rgba(50,50,50,1)" stroke-width="2" fill-opacity="1" fill="#6ed464"></path><g id="SvgjsG1061"><text id="SvgjsText1062" font-family="Arial" text-anchor="middle" font-size="13px" width="91px" fill="#323232" font-weight="400" align="middle" anchor="middle" family="Arial" size="13px" weight="400" font-style="" opacity="1" y="5.050000000000001" transform="rotate(0)"></text></g></g><g id="SvgjsG1063" transform="translate(1295.328125,192.2776216196356)"><path id="SvgjsPath1064" d="M 0 0L 39.16666666666663 0L 39.16666666666663 21L 0 21Z" stroke="rgba(50,50,50,1)" stroke-width="2" fill-opacity="1" fill="#6ed464"></path><g id="SvgjsG1065"><text id="SvgjsText1066" font-family="Arial" text-anchor="middle" font-size="13px" width="20px" fill="#323232" font-weight="400" align="middle" anchor="middle" family="Arial" size="13px" weight="400" font-style="" opacity="1" y="0.55" transform="rotate(0)"><tspan id="SvgjsTspan1067" dy="16" x="20"><tspan id="SvgjsTspan1068" style="text-decoration:;">Fn</tspan></tspan></text></g></g><g id="SvgjsG1069" transform="translate(1315.7447916666667,24.989583333333314)"><path id="SvgjsPath1070" d="M 0 0L 242 0L 258 16L 258 88.33333333333337L 0 88.33333333333337L 0 0Z" stroke="none" fill-opacity="1" fill="#ffffaa"></path><path id="SvgjsPath1071" d="M 242 0L 242 16L 258 16Z" stroke="none" fill-opacity="1" fill="#cdcdcd"></path><path id="SvgjsPath1072" d="M 0 0L 242 0L 258 16L 258 88.33333333333337L 0 88.33333333333337L 0 0Z" stroke="none" fill="none"></path><g id="SvgjsG1073"><text id="SvgjsText1074" font-family="Arial" text-anchor="middle" font-size="13px" width="238px" fill="#323232" font-weight="400" align="middle" anchor="middle" family="Arial" size="13px" weight="400" font-style="" opacity="1" y="18.216666666666686" transform="rotate(0)"><tspan id="SvgjsTspan1075" dy="16" x="129"><tspan id="SvgjsTspan1076" style="text-decoration:;">从CacheMods缓存中取，</tspan></tspan><tspan id="SvgjsTspan1077" dy="16" x="129"><tspan id="SvgjsTspan1078" style="text-decoration:;">缓存若没有，实例化一个Module</tspan></tspan><tspan id="SvgjsTspan1079" dy="16" x="129"><tspan id="SvgjsTspan1080" style="text-decoration:;">并存储在缓存中</tspan></tspan></text></g></g><g id="SvgjsG1081"><path id="SvgjsPath1082" d="M1281.328125 143.82291666666669L1299.726594650206 143.82291666666669L1299.726594650206 69.15625L1315.7447916666667 69.15625" stroke="#323232" stroke-width="2" fill="none" marker-end="url(#SvgjsMarker1083)"></path></g><g id="SvgjsG1085" transform="translate(1069.328125,262.4895833333335)"><path id="SvgjsPath1086" d="M 0 0L 212 0L 212 30L 0 30Z" stroke="rgba(50,50,50,1)" stroke-width="2" fill-opacity="1" fill="#6ed464"></path><g id="SvgjsG1087"><text id="SvgjsText1088" font-family="Arial" text-anchor="middle" font-size="13px" width="192px" fill="#323232" font-weight="400" align="middle" anchor="middle" family="Arial" size="13px" weight="400" font-style="" opacity="1" y="5.05" transform="rotate(0)"><tspan id="SvgjsTspan1089" dy="16" x="106"><tspan id="SvgjsTspan1090" style="text-decoration:;">[2.3]mod.load</tspan></tspan></text></g></g><g id="SvgjsG1091"><path id="SvgjsPath1092" d="M863.328125 209.81097516166972L843.578125 209.81097516166972L843.578125 209.81097516166972L824.328125 209.81097516166972" stroke="#323232" stroke-width="2" fill="none" marker-end="url(#SvgjsMarker1093)"></path></g><g id="SvgjsG1095" transform="translate(701.1614583333334,160.8229166666665)"><path id="SvgjsPath1096" d="M 0 0L 97.33333333333334 0L 113.33333333333334 16L 113.33333333333334 101.66666666666697L 0 101.66666666666697L 0 0Z" stroke="none" fill-opacity="1" fill="#ffffaa"></path><path id="SvgjsPath1097" d="M 97.33333333333334 0L 97.33333333333334 16L 113.33333333333334 16Z" stroke="none" fill-opacity="1" fill="#cdcdcd"></path><path id="SvgjsPath1098" d="M 0 0L 97.33333333333334 0L 113.33333333333334 16L 113.33333333333334 101.66666666666697L 0 101.66666666666697L 0 0Z" stroke="none" fill="none"></path><g id="SvgjsG1099"><text id="SvgjsText1100" font-family="Arial" text-anchor="middle" font-size="13px" width="94px" fill="#323232" font-weight="400" align="middle" anchor="middle" family="Arial" size="13px" weight="400" font-style="" opacity="1" y="32.88333333333348" transform="rotate(0)"><tspan id="SvgjsTspan1101" dy="16" x="57"><tspan id="SvgjsTspan1102" style="text-decoration:;">模块初始化，并</tspan></tspan><tspan id="SvgjsTspan1103" dy="16" x="57"><tspan id="SvgjsTspan1104" style="text-decoration:;">开始加载模块</tspan></tspan></text></g></g><g id="SvgjsG1105" transform="translate(848.328125,357.48958333333326)"><path id="SvgjsPath1106" d="M 0 0L 212 0L 212 36L 0 36Z" stroke="rgba(50,50,50,1)" stroke-width="2" fill-opacity="1" fill="#6ed464"></path><g id="SvgjsG1107"><text id="SvgjsText1108" font-family="Arial" text-anchor="middle" font-size="13px" width="192px" fill="#323232" font-weight="400" align="middle" anchor="middle" family="Arial" size="13px" weight="400" font-style="" opacity="1" y="8.05" transform="rotate(0)"><tspan id="SvgjsTspan1109" dy="16" x="106"><tspan id="SvgjsTspan1110" style="text-decoration:;">[3] Module.prototype.load</tspan></tspan></text></g></g><g id="SvgjsG1111"><path id="SvgjsPath1112" d="M1175.328125 292.4895833333335L1175.328125 324.98958333333337L954.328125 324.98958333333337L954.328125 357.48958333333326" stroke="#323232" stroke-width="2" fill="none" marker-end="url(#SvgjsMarker1113)"></path></g><g id="SvgjsG1115" transform="translate(823.6614583333333,303.73958333333337)"><path id="SvgjsPath1116" d="M 0 140Q 9 140 9 131L 9 79Q 9 70 22 70Q 9 70 9 61L 9 9Q 9 0 0 0" stroke="rgba(50,50,50,1)" stroke-width="2" fill="none"></path><path id="SvgjsPath1117" d="M 0 0L 100 0L 100 140L 0 140Z" stroke="none" fill="none"></path><g id="SvgjsG1118"><text id="SvgjsText1119" font-family="Arial" text-anchor="start" font-size="13px" width="73px" fill="#323232" font-weight="400" align="middle" anchor="start" family="Arial" size="13px" weight="400" font-style="" opacity="1" y="60.05" transform="rotate(0)"></text></g></g><g id="SvgjsG1120" transform="translate(524.328125,266.15625)"><path id="SvgjsPath1121" d="M 0 4Q 0 0 4 0L 292 0Q 296 0 296 4L 296 56Q 296 60 292 60L 4 60Q 0 60 0 56Z" stroke="rgba(50,50,50,1)" stroke-width="2" fill-opacity="1" fill="#6ed464"></path><g id="SvgjsG1122"><text id="SvgjsText1123" font-family="Arial" text-anchor="middle" font-size="13px" width="276px" fill="#323232" font-weight="400" align="middle" anchor="middle" family="Arial" size="13px" weight="400" font-style="" opacity="1" y="4.05" transform="rotate(0)"><tspan id="SvgjsTspan1124" dy="16" x="148"><tspan id="SvgjsTspan1125" style="text-decoration:;">[3.1] 设置状态为LOADING</tspan></tspan><tspan id="SvgjsTspan1126" dy="16" x="148"><tspan id="SvgjsTspan1127" style="text-decoration:;">处理依赖项为具体路径</tspan></tspan><tspan id="SvgjsTspan1128" dy="16" x="148"><tspan id="SvgjsTspan1129" style="text-decoration:;">遍历所有依赖项的uri，进行依赖模块的实例化</tspan></tspan></text></g></g><g id="SvgjsG1130" transform="translate(641.328125,417.15625)"><path id="SvgjsPath1131" d="M 0 27L 91 0L 182 27L 91 54Z" stroke="rgba(50,50,50,1)" stroke-width="2" fill-opacity="1" fill="#6ed464"></path><g id="SvgjsG1132"><text id="SvgjsText1133" font-family="Arial" text-anchor="middle" font-size="13px" width="162px" fill="#323232" font-weight="400" align="middle" anchor="middle" family="Arial" size="13px" weight="400" font-style="" opacity="1" y="17.32" transform="rotate(0)"><tspan id="SvgjsTspan1134" dy="16" x="91"><tspan id="SvgjsTspan1135" style="text-decoration:;">[3.3]是否还有依赖模块</tspan></tspan></text></g></g><g id="SvgjsG1136"><path id="SvgjsPath1137" d="M732.3281250000001 471.15625L732.3281250000001 501.7993303231217L732.3281250000001 501.7993303231217L732.3281250000001 534.15625" stroke="#323232" stroke-width="2" fill="none" marker-end="url(#SvgjsMarker1138)"></path></g><g id="SvgjsG1140" transform="translate(603.328125,534.15625)"><path id="SvgjsPath1141" d="M 0 0L 258 0L 258 36L 0 36Z" stroke="rgba(50,50,50,1)" stroke-width="2" fill-opacity="1" fill="#6ed464"></path><g id="SvgjsG1142"><text id="SvgjsText1143" font-family="Arial" text-anchor="middle" font-size="13px" width="238px" fill="#323232" font-weight="400" align="middle" anchor="middle" family="Arial" size="13px" weight="400" font-style="" opacity="1" y="0.050000000000000044" transform="rotate(0)"><tspan id="SvgjsTspan1144" dy="16" x="129"><tspan id="SvgjsTspan1145" style="text-decoration:;">[3.4]</tspan></tspan><tspan id="SvgjsTspan1146" dy="16" x="129"><tspan id="SvgjsTspan1147" style="text-decoration:;">_entry被清空，去执行依赖模块的拉取</tspan></tspan></text></g></g><g id="SvgjsG1148" transform="translate(585.686149691358,442.9628198463505)"><path id="SvgjsPath1149" d="M 0 0L 29.30864197530869 0L 29.30864197530869 21L 0 21Z" stroke="none" fill="none"></path><g id="SvgjsG1150"><text id="SvgjsText1151" font-family="Arial" text-anchor="middle" font-size="13px" width="30px" fill="#323232" font-weight="400" align="middle" anchor="middle" family="Arial" size="13px" weight="400" font-style="" opacity="1" y="0.55" transform="rotate(0)"><tspan id="SvgjsTspan1152" dy="16" x="15"><tspan id="SvgjsTspan1153" style="text-decoration:;">无</tspan></tspan></text></g></g><g id="SvgjsG1154" transform="translate(294.3281250000002,423.47930373503385)"><path id="SvgjsPath1155" d="M 0 0L 258 0L 258 42L 0 42Z" stroke="rgba(50,50,50,1)" stroke-width="2" fill-opacity="1" fill="#6ed464"></path><g id="SvgjsG1156"><text id="SvgjsText1157" font-family="Arial" text-anchor="middle" font-size="13px" width="238px" fill="#323232" font-weight="400" align="middle" anchor="middle" family="Arial" size="13px" weight="400" font-style="" opacity="1" y="3.05" transform="rotate(0)"><tspan id="SvgjsTspan1158" dy="16" x="129"><tspan id="SvgjsTspan1159" style="text-decoration:;">[3.4]</tspan></tspan><tspan id="SvgjsTspan1160" dy="16" x="129"><tspan id="SvgjsTspan1161" style="text-decoration:;">此时，_entry未清空，走m.onload()</tspan></tspan></text></g></g><g id="SvgjsG1162" transform="translate(682.3390989368997,468.58511537331003)"><path id="SvgjsPath1163" d="M 0 0L 123 0L 123 42L 0 42Z" stroke="none" fill="none"></path><g id="SvgjsG1164"><text id="SvgjsText1165" font-family="Arial" text-anchor="middle" font-size="13px" width="123px" fill="#323232" font-weight="400" align="middle" anchor="middle" family="Arial" size="13px" weight="400" font-style="" opacity="1" y="11.05" transform="rotate(0)"><tspan id="SvgjsTspan1166" dy="16" x="61.5"><tspan id="SvgjsTspan1167" style="text-decoration:;">有</tspan></tspan></text></g></g><g id="SvgjsG1168" transform="translate(24.994791666667652,321.15625)"><path id="SvgjsPath1169" d="M 0 0L 226 0L 242 16L 242 112L 0 112L 0 0Z" stroke="none" fill-opacity="1" fill="#ffffaa"></path><path id="SvgjsPath1170" d="M 226 0L 226 16L 242 16Z" stroke="none" fill-opacity="1" fill="#cdcdcd"></path><path id="SvgjsPath1171" d="M 0 0L 226 0L 242 16L 242 112L 0 112L 0 0Z" stroke="none" fill="none"></path><g id="SvgjsG1172"><text id="SvgjsText1173" font-family="Arial" text-anchor="middle" font-size="13px" width="222px" fill="#323232" font-weight="400" align="middle" anchor="middle" family="Arial" size="13px" weight="400" font-style="" opacity="1" y="14.05" transform="rotate(0)"><tspan id="SvgjsTspan1174" dy="16" x="121"><tspan id="SvgjsTspan1175" style="text-decoration:;">mod.pass():</tspan></tspan><tspan id="SvgjsTspan1176" dy="16" x="121"><tspan id="SvgjsTspan1177" style="text-decoration:;">验证是否有_entry这个值，有的话：处</tspan></tspan><tspan id="SvgjsTspan1178" dy="16" x="121"><tspan id="SvgjsTspan1179" style="text-decoration:;">理dependencies内容，</tspan></tspan><tspan id="SvgjsTspan1180" dy="16" x="121"><tspan id="SvgjsTspan1181" style="text-decoration:;">标识history，传递_entry给子模块</tspan></tspan><tspan id="SvgjsTspan1182" dy="16" x="121"><tspan id="SvgjsTspan1183" style="text-decoration:;">如果有依赖项，则清空_entry</tspan></tspan></text></g></g><g id="SvgjsG1184" transform="translate(623.6614583333334,357.82291666666674)"><path id="SvgjsPath1185" d="M 0 0L 196.66666666666666 0L 196.66666666666666 42L 0 42Z" stroke="rgba(50,50,50,1)" stroke-width="2" fill-opacity="1" fill="#6ed464"></path><g id="SvgjsG1186"><text id="SvgjsText1187" font-family="Arial" text-anchor="middle" font-size="13px" width="177px" fill="#323232" font-weight="400" align="middle" anchor="middle" family="Arial" size="13px" weight="400" font-style="" opacity="1" y="11.05" transform="rotate(0)"><tspan id="SvgjsTspan1188" dy="16" x="98.5"><tspan id="SvgjsTspan1189" style="text-decoration:;">[3.2]模块传递【mod.pass()】</tspan></tspan></text></g></g><g id="SvgjsG1190"><path id="SvgjsPath1191" d="M623.6614583333334 377.15624999999994L444.6614583333332 377.15624999999994L444.6614583333332 377.15624999999994L266.99479166666765 377.15624999999994" stroke="#323232" stroke-width="2" fill="none" marker-end="url(#SvgjsMarker1192)"></path></g><g id="SvgjsG1194"><path id="SvgjsPath1195" d="M641.328125 444.47930373503385L595.9577546296296 444.47930373503385L595.9577546296296 444.47930373503385L552.3281250000002 444.47930373503385" stroke="#323232" stroke-width="2" fill="none" marker-end="url(#SvgjsMarker1196)"></path></g><g id="SvgjsG1198"><path id="SvgjsPath1199" d="M861.328125 550.3018596986415L892.0163545348698 550.3018596986415L892.0163545348698 550.3018596986415L921.1728561827306 550.3018596986415" stroke="#323232" stroke-width="2" fill="none" marker-end="url(#SvgjsMarker1200)"></path></g><g id="SvgjsG1202" transform="translate(916.7323145808722,513.15625)"><path id="SvgjsPath1203" d="M 0 0L 278.26247708579444 0L 278.26247708579444 78L 0 78Z" stroke="rgba(50,50,50,1)" stroke-width="2" fill-opacity="1" fill="#6ed464"></path><g id="SvgjsG1204"><text id="SvgjsText1205" font-family="Arial" text-anchor="middle" font-size="13px" width="259px" fill="#323232" font-weight="400" align="middle" anchor="middle" family="Arial" size="13px" weight="400" font-style="" opacity="1" y="13.05" transform="rotate(0)"><tspan id="SvgjsTspan1206" dy="16" x="139.5"><tspan id="SvgjsTspan1207" style="text-decoration:;">[3.4.1]m.fetch(requestCache)</tspan></tspan><tspan id="SvgjsTspan1208" dy="16" x="139.5"><tspan id="SvgjsTspan1209" style="text-decoration:;">修改状态为FETCHING</tspan></tspan><tspan id="SvgjsTspan1210" dy="16" x="139.5"><tspan id="SvgjsTspan1211" style="text-decoration:;">存储每个模块的请求方式至sendRequest</tspan></tspan></text></g></g><g id="SvgjsG1212"><path id="SvgjsPath1213" d="M732.0742111625208 570.15625L732.0742111625208 596.483410493827L732.0742111625208 596.483410493827L732.0742111625208 625.1562499999997" stroke="#323232" stroke-width="2" fill="none" marker-end="url(#SvgjsMarker1214)"></path></g><g id="SvgjsG1216" transform="translate(611.328125,625.1562499999997)"><path id="SvgjsPath1217" d="M 0 0L 242 0L 242 36L 0 36Z" stroke="rgba(50,50,50,1)" stroke-width="2" fill-opacity="1" fill="#6ed464"></path><g id="SvgjsG1218"><text id="SvgjsText1219" font-family="Arial" text-anchor="middle" font-size="13px" width="222px" fill="#323232" font-weight="400" align="middle" anchor="middle" family="Arial" size="13px" weight="400" font-style="" opacity="1" y="0.050000000000000044" transform="rotate(0)"><tspan id="SvgjsTspan1220" dy="16" x="121"><tspan id="SvgjsTspan1221" style="text-decoration:;">[3.5]</tspan></tspan><tspan id="SvgjsTspan1222" dy="16" x="121"><tspan id="SvgjsTspan1223" style="text-decoration:;">根据sendRequest并行加载依赖模块</tspan></tspan></text></g></g><g id="SvgjsG1224"><path id="SvgjsPath1225" d="M853.328125 644.489583333333L887.8504369781876 644.489583333333L887.8504369781876 644.489583333333L922.7725694444445 644.489583333333" stroke="#323232" stroke-width="2" fill="none" marker-end="url(#SvgjsMarker1226)"></path></g><g id="SvgjsG1228" transform="translate(922.7725694444445,626.489583333333)"><path id="SvgjsPath1229" d="M 0 0L 123 0L 123 36L 0 36Z" stroke="rgba(50,50,50,1)" stroke-width="2" fill-opacity="1" fill="#6ed464"></path><g id="SvgjsG1230"><text id="SvgjsText1231" font-family="Arial" text-anchor="middle" font-size="13px" width="103px" fill="#323232" font-weight="400" align="middle" anchor="middle" family="Arial" size="13px" weight="400" font-style="" opacity="1" y="0.050000000000000044" transform="rotate(0)"><tspan id="SvgjsTspan1232" dy="16" x="61.5"><tspan id="SvgjsTspan1233" style="text-decoration:;">[3.5.1]</tspan></tspan><tspan id="SvgjsTspan1234" dy="16" x="61.5"><tspan id="SvgjsTspan1235" style="text-decoration:;">sendRequest</tspan></tspan></text></g></g><g id="SvgjsG1236"><path id="SvgjsPath1237" d="M1045.7725694444443 644.1562499999999L1073.5416617821988 644.1562499999999L1073.5416617821988 644.1562499999999L1100.328125 644.1562499999999" stroke="#323232" stroke-width="2" fill="none" marker-end="url(#SvgjsMarker1238)"></path></g><g id="SvgjsG1240" transform="translate(1100.328125,609.65625)"><path id="SvgjsPath1241" d="M 0 0L 366 0L 366 69L 0 69Z" stroke="rgba(50,50,50,1)" stroke-width="2" fill-opacity="1" fill="#6ed464"></path><g id="SvgjsG1242"><text id="SvgjsText1243" font-family="Arial" text-anchor="middle" font-size="13px" width="346px" fill="#323232" font-weight="400" align="middle" anchor="middle" family="Arial" size="13px" weight="400" font-style="" opacity="1" y="0.55" transform="rotate(0)"><tspan id="SvgjsTspan1244" dy="16" x="183"><tspan id="SvgjsTspan1245" style="text-decoration:;">[3.5.1.1]</tspan></tspan><tspan id="SvgjsTspan1246" dy="16" x="183"><tspan id="SvgjsTspan1247" style="text-decoration:;">seajs.request(requestUri,onRequest,chartset,corssorgin)</tspan></tspan><tspan id="SvgjsTspan1248" dy="16" x="183"><tspan id="SvgjsTspan1249" style="text-decoration:;">动态添加script至head</tspan></tspan><tspan id="SvgjsTspan1250" dy="16" x="183"><tspan id="SvgjsTspan1251" style="text-decoration:;">添加script成功后回调</tspan></tspan></text></g></g><g id="SvgjsG1252"><path id="SvgjsPath1253" d="M1466.328125 644.15625L1477.843407858304 644.15625A 3 3, 0, 0, 1,1489.843407858304 644.15625L1536.994791666667 644.15625" stroke="#323232" stroke-width="2" fill="none" marker-end="url(#SvgjsMarker1254)"></path></g><g id="SvgjsG1256" transform="translate(2180.7725694444425,632.15625)"><path id="SvgjsPath1257" d="M 0 0L 171 0L 171 54L 0 54Z" stroke="rgba(50,50,50,1)" stroke-width="2" fill-opacity="1" fill="#6ed464"></path><g id="SvgjsG1258"><text id="SvgjsText1259" font-family="Arial" text-anchor="middle" font-size="13px" width="151px" fill="#323232" font-weight="400" align="middle" anchor="middle" family="Arial" size="13px" weight="400" font-style="" opacity="1" y="9.05" transform="rotate(0)"><tspan id="SvgjsTspan1260" dy="16" x="85.5"><tspan id="SvgjsTspan1261" style="text-decoration:;">回调中执行的是</tspan></tspan><tspan id="SvgjsTspan1262" dy="16" x="85.5"><tspan id="SvgjsTspan1263" style="text-decoration:;">onRequest</tspan></tspan></text></g></g><g id="SvgjsG1264"><path id="SvgjsPath1265" d="M2351.7725694444425 659.15625L2378.4392361111086 659.15625L2378.4392361111086 659.15625L2403.828125 659.15625" stroke="#323232" stroke-width="2" fill="none" marker-end="url(#SvgjsMarker1266)"></path></g><g id="SvgjsG1268" transform="translate(2403.828125,624.65625)"><path id="SvgjsPath1269" d="M 0 34.5L 85.5 0L 171 34.5L 85.5 69Z" stroke="rgba(50,50,50,1)" stroke-width="2" fill-opacity="1" fill="#6ed464"></path><g id="SvgjsG1270"><text id="SvgjsText1271" font-family="Arial" text-anchor="middle" font-size="13px" width="151px" fill="#323232" font-weight="400" align="middle" anchor="middle" family="Arial" size="13px" weight="400" font-style="" opacity="1" y="24.895" transform="rotate(0)"><tspan id="SvgjsTspan1272" dy="16" x="85.5"><tspan id="SvgjsTspan1273" style="text-decoration:;">是否有anonymousMeta</tspan></tspan></text></g></g><g id="SvgjsG1274"><path id="SvgjsPath1275" d="M2489.328124999999 624.65625L2489.328124999999 595.6198850798605L2489.328124999999 595.6198850798605L2489.328124999999 572.6422603182175" stroke="#323232" stroke-width="2" fill="none" marker-end="url(#SvgjsMarker1276)"></path></g><g id="SvgjsG1278" transform="translate(2344.994791666667,512.6422603182175)"><path id="SvgjsPath1279" d="M 0 0L 288.6666666666665 0L 288.6666666666665 60L 0 60Z" stroke="rgba(50,50,50,1)" stroke-width="2" fill-opacity="1" fill="#6ed464"></path><g id="SvgjsG1280"><text id="SvgjsText1281" font-family="Arial" text-anchor="middle" font-size="13px" width="269px" fill="#323232" font-weight="400" align="middle" anchor="middle" family="Arial" size="13px" weight="400" font-style="" opacity="1" y="12.05" transform="rotate(0)"><tspan id="SvgjsTspan1282" dy="16" x="144.5"><tspan id="SvgjsTspan1283" style="text-decoration:;">define生成的匿名模块Module.save(uri, </tspan></tspan><tspan id="SvgjsTspan1284" dy="16" x="144.5"><tspan id="SvgjsTspan1285" style="text-decoration:;">anonymousMeta)</tspan></tspan></text></g></g><g id="SvgjsG1286" transform="translate(2448.828125,584.2353699238083)"><path id="SvgjsPath1287" d="M 0 0L 123 0L 123 42L 0 42Z" stroke="none" fill="none"></path><g id="SvgjsG1288"><text id="SvgjsText1289" font-family="Arial" text-anchor="middle" font-size="13px" width="123px" fill="#323232" font-weight="400" align="middle" anchor="middle" family="Arial" size="13px" weight="400" font-style="" opacity="1" y="11.05" transform="rotate(0)"><tspan id="SvgjsTspan1290" dy="16" x="61.5"><tspan id="SvgjsTspan1291" style="text-decoration:;">存在</tspan></tspan></text></g></g><g id="SvgjsG1292"><path id="SvgjsPath1293" d="M2488.9947916666665 693.65625L2488.9947916666665 717.0028596357425L2488.9947916666665 717.0028596357425L2488.9947916666665 739.5687032571417" stroke="#323232" stroke-width="2" fill="none" marker-end="url(#SvgjsMarker1294)"></path></g><g id="SvgjsG1296" transform="translate(2439.328125,739.5687032571417)"><path id="SvgjsPath1297" d="M 0 0L 100 0L 100 69L 0 69Z" stroke="rgba(50,50,50,1)" stroke-width="2" fill-opacity="1" fill="#6ed464"></path><g id="SvgjsG1298"><text id="SvgjsText1299" font-family="Arial" text-anchor="middle" font-size="13px" width="80px" fill="#323232" font-weight="400" align="middle" anchor="middle" family="Arial" size="13px" weight="400" font-style="" opacity="1" y="16.55" transform="rotate(0)"><tspan id="SvgjsTspan1300" dy="16" x="50"><tspan id="SvgjsTspan1301" style="text-decoration:;">执行子模块的</tspan></tspan><tspan id="SvgjsTspan1302" dy="16" x="50"><tspan id="SvgjsTspan1303" style="text-decoration:;">load加载</tspan></tspan></text></g></g><g id="SvgjsG1304"><path id="SvgjsPath1305" d="M2633.661458333333 542.6422603182175L2662.702839220391 542.6422603182175L2662.702839220391 774.0687032571417L2539.328125 774.0687032571417" stroke="#323232" stroke-width="2" fill="none" marker-end="url(#SvgjsMarker1306)"></path></g><g id="SvgjsG1308" transform="translate(2448.828125,691.71685140529)"><path id="SvgjsPath1309" d="M 0 0L 123 0L 123 42L 0 42Z" stroke="none" fill="none"></path><g id="SvgjsG1310"><text id="SvgjsText1311" font-family="Arial" text-anchor="middle" font-size="13px" width="123px" fill="#323232" font-weight="400" align="middle" anchor="middle" family="Arial" size="13px" weight="400" font-style="" opacity="1" y="11.05" transform="rotate(0)"><tspan id="SvgjsTspan1312" dy="16" x="61.5"><tspan id="SvgjsTspan1313" style="text-decoration:;">不存在</tspan></tspan></text></g></g><g id="SvgjsG1314"><path id="SvgjsPath1315" d="M2489.3281250000005 512.6422603182175L2489.3281250000005 497.0856143181437L2489.3281250000005 497.0856143181437L2489.3281250000005 478.65625" stroke="#323232" stroke-width="2" fill="none" marker-end="url(#SvgjsMarker1316)"></path></g><g id="SvgjsG1318" transform="translate(2368.328125,409.65625)"><path id="SvgjsPath1319" d="M 0 0L 226 0L 242 16L 242 69L 0 69L 0 0Z" stroke="none" fill-opacity="1" fill="#ffffaa"></path><path id="SvgjsPath1320" d="M 226 0L 226 16L 242 16Z" stroke="none" fill-opacity="1" fill="#cdcdcd"></path><path id="SvgjsPath1321" d="M 0 0L 226 0L 242 16L 242 69L 0 69L 0 0Z" stroke="none" fill="none"></path><g id="SvgjsG1322"><text id="SvgjsText1323" font-family="Arial" text-anchor="middle" font-size="13px" width="222px" fill="#323232" font-weight="400" align="middle" anchor="middle" family="Arial" size="13px" weight="400" font-style="" opacity="1" y="8.55" transform="rotate(0)"><tspan id="SvgjsTspan1324" dy="16" x="121"><tspan id="SvgjsTspan1325" style="text-decoration:;">改变当前模块内的属性</tspan></tspan><tspan id="SvgjsTspan1326" dy="16" x="121"><tspan id="SvgjsTspan1327" style="text-decoration:;">id, dependencise,factory,status</tspan></tspan><tspan id="SvgjsTspan1328" dy="16" x="121"><tspan id="SvgjsTspan1329" style="text-decoration:;">设置状态为SAVED</tspan></tspan></text></g></g><g id="SvgjsG1330" transform="translate(1536.994791666667,609.65625)"><path id="SvgjsPath1331" d="M 0 0L 123 0L 123 69L 0 69Z" stroke="rgba(50,50,50,1)" stroke-width="2" fill-opacity="1" fill="#6ed464"></path><g id="SvgjsG1332"><text id="SvgjsText1333" font-family="Arial" text-anchor="middle" font-size="13px" width="103px" fill="#323232" font-weight="400" align="middle" anchor="middle" family="Arial" size="13px" weight="400" font-style="" opacity="1" y="8.55" transform="rotate(0)"><tspan id="SvgjsTspan1334" dy="16" x="61.5"><tspan id="SvgjsTspan1335" style="text-decoration:;">[3.5.1.1.1]</tspan></tspan><tspan id="SvgjsTspan1336" dy="16" x="61.5"><tspan id="SvgjsTspan1337" style="text-decoration:;">引入script</tspan></tspan><tspan id="SvgjsTspan1338" dy="16" x="61.5"><tspan id="SvgjsTspan1339" style="text-decoration:;">执行，js内部代码</tspan></tspan></text></g></g><g id="SvgjsG1340" transform="translate(1734.4797840035392,588.2702950462119)"><path id="SvgjsPath1341" d="M 0 0L 359.69668199292164 0L 359.69668199292164 112L 0 112Z" stroke="rgba(50,50,50,1)" stroke-width="2" fill-opacity="1" fill="#6ed464"></path><g id="SvgjsG1342"><text id="SvgjsText1343" font-family="Arial" text-anchor="middle" font-size="13px" width="340px" fill="#323232" font-weight="400" align="middle" anchor="middle" family="Arial" size="13px" weight="400" font-style="" opacity="1" y="22.05" transform="rotate(0)"><tspan id="SvgjsTspan1344" dy="16" x="180"><tspan id="SvgjsTspan1345" style="text-decoration:;">执行新模块，</tspan></tspan><tspan id="SvgjsTspan1346" dy="16" x="180"><tspan id="SvgjsTspan1347" style="text-decoration:;">由define定义</tspan></tspan><tspan id="SvgjsTspan1348" dy="16" x="180"><tspan id="SvgjsTspan1349" style="text-decoration:;">define中通过正则匹配require 得到依赖的子模块</tspan></tspan><tspan id="SvgjsTspan1350" dy="16" x="180"><tspan id="SvgjsTspan1351" style="text-decoration:;">构建新的meta元数据，并且保存</tspan></tspan></text></g></g><g id="SvgjsG1352"><path id="SvgjsPath1353" d="M1914.328124999999 588.2702950462119L1914.328124999999 532.8204970315651L1914.328124999999 532.8204970315651L1914.328124999999 478.65625" stroke="#323232" stroke-width="2" fill="none" marker-end="url(#SvgjsMarker1354)"></path></g><g id="SvgjsG1356" transform="translate(1797.0997299382716,409.65625)"><path id="SvgjsPath1357" d="M 0 0L 218.4567901234568 0L 234.4567901234568 16L 234.4567901234568 69L 0 69L 0 0Z" stroke="none" fill-opacity="1" fill="#ffffaa"></path><path id="SvgjsPath1358" d="M 218.4567901234568 0L 218.4567901234568 16L 234.4567901234568 16Z" stroke="none" fill-opacity="1" fill="#cdcdcd"></path><path id="SvgjsPath1359" d="M 0 0L 218.4567901234568 0L 234.4567901234568 16L 234.4567901234568 69L 0 69L 0 0Z" stroke="none" fill="none"></path><g id="SvgjsG1360"><text id="SvgjsText1361" font-family="Arial" text-anchor="middle" font-size="13px" width="215px" fill="#323232" font-weight="400" align="middle" anchor="middle" family="Arial" size="13px" weight="400" font-style="" opacity="1" y="8.55" transform="rotate(0)"><tspan id="SvgjsTspan1362" dy="16" x="117.5"><tspan id="SvgjsTspan1363" style="text-decoration:;">若有uri，立刻执行Module.save,否则</tspan></tspan><tspan id="SvgjsTspan1364" dy="16" x="117.5"><tspan id="SvgjsTspan1365" style="text-decoration:;">存储meta至anonymousMeta，等待</tspan></tspan><tspan id="SvgjsTspan1366" dy="16" x="117.5"><tspan id="SvgjsTspan1367" style="text-decoration:;">时机执行Module.save</tspan></tspan></text></g></g><g id="SvgjsG1368"><path id="SvgjsPath1369" d="M2094.176465996461 644.2702950462119L2137.065354885348 644.2702950462119L2137.065354885348 659.15625L2180.7725694444425 659.15625" stroke="#323232" stroke-width="2" fill="none" marker-end="url(#SvgjsMarker1370)"></path></g><g id="SvgjsG1372"><path id="SvgjsPath1373" d="M1659.994791666667 644.2702950462118L1698.1059027777774 644.2702950462118L1698.1059027777774 644.2702950462118L1734.4797840035392 644.2702950462118" stroke="#323232" stroke-width="2" fill="none" marker-end="url(#SvgjsMarker1374)"></path></g><g id="SvgjsG1376" transform="translate(2750.328125000001,383.1510808432134)"><path id="SvgjsPath1377" d="M 0 0L 20 0L 20 112L 0 112Z" stroke="none" fill="none"></path><g id="SvgjsG1378"><text id="SvgjsText1379" font-family="Arial" text-anchor="middle" font-size="13px" width="20px" fill="#323232" font-weight="400" align="middle" anchor="middle" family="Arial" size="13px" weight="400" font-style="" opacity="1" y="-1.95" transform="rotate(0)"><tspan id="SvgjsTspan1380" dy="16" x="10"><tspan id="SvgjsTspan1381" style="text-decoration:;">继</tspan></tspan><tspan id="SvgjsTspan1382" dy="16" x="10"><tspan id="SvgjsTspan1383" style="text-decoration:;">续</tspan></tspan><tspan id="SvgjsTspan1384" dy="16" x="10"><tspan id="SvgjsTspan1385" style="text-decoration:;">加</tspan></tspan><tspan id="SvgjsTspan1386" dy="16" x="10"><tspan id="SvgjsTspan1387" style="text-decoration:;">载</tspan></tspan><tspan id="SvgjsTspan1388" dy="16" x="10"><tspan id="SvgjsTspan1389" style="text-decoration:;">子</tspan></tspan><tspan id="SvgjsTspan1390" dy="16" x="10"><tspan id="SvgjsTspan1391" style="text-decoration:;">模</tspan></tspan><tspan id="SvgjsTspan1392" dy="16" x="10"><tspan id="SvgjsTspan1393" style="text-decoration:;">块</tspan></tspan></text></g></g><g id="SvgjsG1394"><path id="SvgjsPath1395" d="M2489.328125 808.5687032571417L2489.328125 839.5687032571417L2760.328125000001 839.5687032571417L2760.328125000001 495.1510808432134" stroke="#323232" stroke-width="2" fill="none" marker-end="url(#SvgjsMarker1396)"></path></g><g id="SvgjsG1398"><path id="SvgjsPath1399" d="M2760.328125000001 383.1510808432134L2760.328125000001 375.48958333333326L1489.843407858304 375.15625A 3 3, 0, 0, 0,1477.843407858304 375.15625L1060.328125 375.48958333333326" stroke="#323232" stroke-width="2" fill="none" marker-end="url(#SvgjsMarker1400)"></path></g><g id="SvgjsG1402" transform="translate(852.9135813928342,746.3784722222224)"><path id="SvgjsPath1403" d="M 0 0L 229 0L 229 78L 0 78Z" stroke="rgba(50,50,50,1)" stroke-width="2" fill-opacity="1" fill="#6ed464"></path><g id="SvgjsG1404"><text id="SvgjsText1405" font-family="Arial" text-anchor="middle" font-size="13px" width="209px" fill="#323232" font-weight="400" align="middle" anchor="middle" family="Arial" size="13px" weight="400" font-style="" opacity="1" y="5.05" transform="rotate(0)"><tspan id="SvgjsTspan1406" dy="16" x="114.5"><tspan id="SvgjsTspan1407" style="text-decoration:;">[4]Module.prototype.onload</tspan></tspan><tspan id="SvgjsTspan1408" dy="16" x="114.5"><tspan id="SvgjsTspan1409" style="text-decoration:;">设置状态LOADED</tspan></tspan><tspan id="SvgjsTspan1410" dy="16" x="114.5"><tspan id="SvgjsTspan1411" style="text-decoration:;">当entry.remain==0,执行</tspan></tspan><tspan id="SvgjsTspan1412" dy="16" x="114.5"><tspan id="SvgjsTspan1413" style="text-decoration:;">entry.callback</tspan></tspan></text></g></g><g id="SvgjsG1414"><path id="SvgjsPath1415" d="M423.3281250000002 465.47930373503385L423.3281250000002 785.3784722222224L852.9135813928342 785.3784722222224" stroke="#323232" stroke-width="2" fill="none" marker-end="url(#SvgjsMarker1416)"></path></g><g id="SvgjsG1418"><path id="SvgjsPath1419" d="M1081.9135813928342 785.3784722222224L1483.843407858304 785.3784722222224L1483.843407858304 238.65625" stroke="#323232" stroke-width="2" fill="none" marker-end="url(#SvgjsMarker1420)"></path></g><g id="SvgjsG1422"><path id="SvgjsPath1423" d="M1598.343407858304 203.46674928715498L1651.062618281004 203.46674928715498L1651.062618281004 203.46674928715498L1703.6614583333333 203.46674928715498" stroke="#323232" stroke-width="2" fill="none" marker-end="url(#SvgjsMarker1424)"></path></g><g id="SvgjsG1426" transform="translate(1703.6614583333333,147.466749287155)"><path id="SvgjsPath1427" d="M 0 0L 568.8888888888894 0L 568.8888888888894 112L 0 112Z" stroke="rgba(50,50,50,1)" stroke-width="2" fill-opacity="1" fill="#6ed464"></path><g id="SvgjsG1428"><text id="SvgjsText1429" font-family="Arial" text-anchor="middle" font-size="13px" width="549px" fill="#323232" font-weight="400" align="middle" anchor="middle" family="Arial" size="13px" weight="400" font-style="" opacity="1" y="6.05" transform="rotate(0)"><tspan id="SvgjsTspan1430" dy="16" x="284.5"><tspan id="SvgjsTspan1431" style="text-decoration:;">[2.2.1.1]Module.prototype.exec()</tspan></tspan><tspan id="SvgjsTspan1432" dy="16" x="284.5"><tspan id="SvgjsTspan1433" style="text-decoration:;">设置状态为EXECUTING</tspan></tspan><tspan id="SvgjsTspan1434" dy="16" x="284.5"><tspan id="SvgjsTspan1435" style="text-decoration:;">定义require方法，提供给define使用</tspan></tspan><tspan id="SvgjsTspan1436" dy="16" x="284.5"><tspan id="SvgjsTspan1437" style="text-decoration:;">调用define定义的回调,传入commonjs相关三个参数: require, module.exports, module</tspan></tspan><tspan id="SvgjsTspan1438" dy="16" x="284.5"><tspan id="SvgjsTspan1439" style="text-decoration:;">设置状态为EXECUTED</tspan></tspan><tspan id="SvgjsTspan1440" dy="16" x="284.5"><tspan id="SvgjsTspan1441" style="text-decoration:;">最后返回mod.exports</tspan></tspan></text></g></g></svg>